<svg width="23" height="18" viewBox="0 0 23 18" fill="none" xmlns="http://www.w3.org/2000/svg">
<path d="M2.05617 2.90355C3.2441 2.4069 4.94748 1.87132 6.60387 1.70488C8.38913 1.52501 9.90324 1.78944 10.7811 2.71429V15.7963C9.52606 15.0849 7.93543 14.9869 6.4683 15.1346C4.88439 15.2956 3.28705 15.7534 2.05617 16.2232V2.90355ZM12.1234 2.71429C13.0013 1.78944 14.5154 1.52501 16.3006 1.70488C17.957 1.87132 19.6604 2.4069 20.8483 2.90355V16.2232C19.6161 15.7534 18.0201 15.2943 16.4362 15.1359C14.9677 14.9869 13.3785 15.0836 12.1234 15.7963V2.71429ZM11.4523 1.50085C10.1301 0.363923 8.21329 0.194794 6.4683 0.369293C4.43606 0.574664 2.38503 1.27132 1.10716 1.85253C0.989909 1.90586 0.890481 1.9918 0.820742 2.1001C0.751004 2.20839 0.713903 2.33447 0.713867 2.46328V17.2286C0.713898 17.3409 0.742105 17.4513 0.795905 17.5499C0.849704 17.6485 0.927375 17.732 1.0218 17.7927C1.11623 17.8535 1.2244 17.8896 1.3364 17.8978C1.4484 17.9059 1.56065 17.8858 1.66287 17.8393C2.84678 17.3024 4.75419 16.6567 6.60253 16.4702C8.49383 16.2796 10.0791 16.5869 10.9288 17.6474C10.9916 17.7257 11.0713 17.789 11.1619 17.8325C11.2525 17.8759 11.3518 17.8985 11.4523 17.8985C11.5527 17.8985 11.652 17.8759 11.7426 17.8325C11.8332 17.789 11.9129 17.7257 11.9757 17.6474C12.8254 16.5869 14.4107 16.2796 16.3006 16.4702C18.1503 16.6567 20.0591 17.3024 21.2416 17.8393C21.3439 17.8858 21.4561 17.9059 21.5681 17.8978C21.6801 17.8896 21.7883 17.8535 21.8827 17.7927C21.9771 17.732 22.0548 17.6485 22.1086 17.5499C22.1624 17.4513 22.1906 17.3409 22.1906 17.2286V2.46328C22.1906 2.33447 22.1535 2.20839 22.0838 2.1001C22.014 1.9918 21.9146 1.90586 21.7973 1.85253C20.5195 1.27132 18.4684 0.574664 16.4362 0.369293C14.6912 0.193452 12.7744 0.363923 11.4523 1.50085Z" fill="white"/>
</svg>
