<svg width="12" height="12" viewBox="0 0 12 12" fill="none" xmlns="http://www.w3.org/2000/svg">
<path d="M3.49123 3.65676V1.87227C3.49123 1.55676 3.61657 1.25416 3.83967 1.03106C4.06277 0.807955 4.36537 0.682617 4.68088 0.682617H7.06019C7.37571 0.682617 7.6783 0.807955 7.90141 1.03106C8.12451 1.25416 8.24985 1.55676 8.24985 1.87227V3.65676H10.0343C10.3498 3.65676 10.6524 3.78209 10.8755 4.0052C11.0986 4.2283 11.224 4.53089 11.224 4.84641V10.1999C11.224 10.5154 11.0986 10.818 10.8755 11.0411C10.6524 11.2642 10.3498 11.3895 10.0343 11.3895H1.70675C1.39123 11.3895 1.08864 11.2642 0.865532 11.0411C0.642428 10.818 0.51709 10.5154 0.51709 10.1999V4.84641C0.51709 4.53089 0.642428 4.2283 0.865532 4.0052C1.08864 3.78209 1.39123 3.65676 1.70675 3.65676H3.49123ZM1.70675 4.84641V10.1999H10.0343V4.84641H8.24866V6.63089H7.06019V4.84641H4.68088V6.63089H3.49123V4.84641H1.70675ZM4.68088 3.65676H7.06019V1.87227H4.68088V3.65676Z" fill="#09B451"/>
</svg>
