<svg width="20" height="20" viewBox="0 0 20 20" fill="none" xmlns="http://www.w3.org/2000/svg">
<path d="M5.73463 6.08473V3.01177C5.73463 2.46844 5.95047 1.94736 6.33466 1.56317C6.71886 1.17897 7.23994 0.963135 7.78327 0.963135H11.8805C12.4239 0.963135 12.945 1.17897 13.3292 1.56317C13.7133 1.94736 13.9292 2.46844 13.9292 3.01177V6.08473H17.0021C17.5455 6.08473 18.0666 6.30057 18.4507 6.68476C18.8349 7.06896 19.0508 7.59003 19.0508 8.13337V17.3522C19.0508 17.8956 18.8349 18.4166 18.4507 18.8008C18.0666 19.185 17.5455 19.4009 17.0021 19.4009H2.66167C2.11834 19.4009 1.59726 19.185 1.21307 18.8008C0.828875 18.4166 0.613037 17.8956 0.613037 17.3522V8.13337C0.613037 7.59003 0.828875 7.06896 1.21307 6.68476C1.59726 6.30057 2.11834 6.08473 2.66167 6.08473H5.73463ZM2.66167 8.13337V17.3522H17.0021V8.13337H13.9271V11.2063H11.8805V8.13337H7.78327V11.2063H5.73463V8.13337H2.66167ZM7.78327 6.08473H11.8805V3.01177H7.78327V6.08473Z" fill="#09B451"/>
</svg>
