<svg width="16" height="12" viewBox="0 0 16 12" fill="none" xmlns="http://www.w3.org/2000/svg">
<path d="M1.62491 1.74028C2.41454 1.41015 3.5468 1.05415 4.64782 0.943511C5.8345 0.823951 6.84095 0.999722 7.42448 1.61448V10.3103C6.59023 9.83737 5.53292 9.77224 4.5577 9.87039C3.50486 9.97746 2.44309 10.2817 1.62491 10.594V1.74028ZM8.31672 1.61448C8.90024 0.999722 9.90669 0.823951 11.0934 0.943511C12.1944 1.05415 13.3267 1.41015 14.1163 1.74028V10.594C13.2972 10.2817 12.2363 9.97656 11.1835 9.87128C10.2074 9.77224 9.15096 9.83648 8.31672 10.3103V1.61448ZM7.8706 0.807891C6.99174 0.052162 5.71762 -0.0602604 4.5577 0.055731C3.20685 0.192244 1.84351 0.655317 0.994093 1.04166C0.916155 1.0771 0.850063 1.13423 0.803707 1.20622C0.757351 1.2782 0.73269 1.36201 0.732666 1.44763V11.2623C0.732687 11.3369 0.751436 11.4104 0.787197 11.4759C0.822958 11.5414 0.874587 11.5969 0.937356 11.6373C1.00012 11.6777 1.07203 11.7017 1.14647 11.7071C1.22092 11.7125 1.29553 11.6992 1.36348 11.6683C2.15044 11.3114 3.41831 10.8822 4.64693 10.7582C5.9041 10.6315 6.95783 10.8358 7.52262 11.5407C7.56442 11.5928 7.61739 11.6348 7.67762 11.6637C7.73785 11.6926 7.8038 11.7076 7.8706 11.7076C7.9374 11.7076 8.00334 11.6926 8.06357 11.6637C8.1238 11.6348 8.17677 11.5928 8.21857 11.5407C8.78336 10.8358 9.8371 10.6315 11.0934 10.7582C12.3229 10.8822 13.5916 11.3114 14.3777 11.6683C14.4457 11.6992 14.5203 11.7125 14.5947 11.7071C14.6692 11.7017 14.7411 11.6777 14.8038 11.6373C14.8666 11.5969 14.9182 11.5414 14.954 11.4759C14.9898 11.4104 15.0085 11.3369 15.0085 11.2623V1.44763C15.0085 1.36201 14.9838 1.2782 14.9375 1.20622C14.8911 1.13423 14.825 1.0771 14.7471 1.04166C13.8977 0.655317 12.5343 0.192244 11.1835 0.055731C10.0236 -0.0611526 8.74945 0.052162 7.8706 0.807891Z" fill="#09B451"/>
</svg>
