<svg width="16" height="16" viewBox="0 0 16 16" fill="none" xmlns="http://www.w3.org/2000/svg">
<path d="M13.9071 6.73676H10.3381C10.2768 6.73676 10.2266 6.78695 10.2266 6.84829V7.51747C10.2266 7.57881 10.2768 7.629 10.3381 7.629H13.9071C13.9684 7.629 14.0186 7.57881 14.0186 7.51747V6.84829C14.0186 6.78695 13.9684 6.73676 13.9071 6.73676ZM12.039 8.63277H10.3381C10.2768 8.63277 10.2266 8.68296 10.2266 8.7443V9.41348C10.2266 9.47482 10.2768 9.52501 10.3381 9.52501H12.039C12.1003 9.52501 12.1505 9.47482 12.1505 9.41348V8.7443C12.1505 8.68296 12.1003 8.63277 12.039 8.63277ZM7.38675 5.48901H6.7831C6.69666 5.48901 6.62695 5.55872 6.62695 5.64516V9.10259C6.62695 9.15278 6.65065 9.19879 6.69108 9.22806L8.76694 10.7421C8.83664 10.7923 8.93423 10.7783 8.98442 10.7086L9.34271 10.2193V10.2179C9.3929 10.1482 9.37757 10.0506 9.30786 10.0004L7.5415 8.72339V5.64516C7.54289 5.55872 7.47179 5.48901 7.38675 5.48901Z" fill="#09B451"/>
<path d="M11.9525 10.3881H11.1467C11.0686 10.3881 10.9947 10.4285 10.9529 10.4954C10.7759 10.7756 10.5695 11.0349 10.3325 11.2719C9.92405 11.6804 9.44865 12.0011 8.92027 12.2241C8.37238 12.4556 7.79103 12.5727 7.19156 12.5727C6.59069 12.5727 6.00934 12.4556 5.46284 12.2241C4.93446 12.0011 4.45907 11.6804 4.05059 11.2719C3.64211 10.8635 3.32146 10.3881 3.0984 9.85969C2.86697 9.3132 2.74987 8.73185 2.74987 8.13098C2.74987 7.53011 2.86697 6.95015 3.0984 6.40226C3.32146 5.87388 3.64211 5.39849 4.05059 4.99001C4.45907 4.58153 4.93446 4.26088 5.46284 4.03782C6.00934 3.80639 6.59208 3.68929 7.19156 3.68929C7.79243 3.68929 8.37378 3.80639 8.92027 4.03782C9.44865 4.26088 9.92405 4.58153 10.3325 4.99001C10.5695 5.22701 10.7759 5.48632 10.9529 5.76654C10.9947 5.83346 11.0686 5.87388 11.1467 5.87388H11.9525C12.0487 5.87388 12.11 5.77351 12.0668 5.68847C11.1578 3.88028 9.31481 2.70503 7.25708 2.68133C4.24437 2.64369 1.74191 5.1099 1.73634 8.11982C1.73076 11.1353 4.17467 13.582 7.19016 13.582C9.27438 13.582 11.1481 12.4026 12.0668 10.5735C12.11 10.4884 12.0473 10.3881 11.9525 10.3881Z" fill="#09B451"/>
</svg>
