<svg width="19" height="17" viewBox="0 0 19 17" fill="none" xmlns="http://www.w3.org/2000/svg">
<path d="M6.42544 0.792114C5.23877 0.792114 4.10071 1.26352 3.26161 2.10261C2.42251 2.94171 1.95111 4.07978 1.95111 5.26644C1.95111 6.45311 2.42251 7.59117 3.26161 8.43027C4.10071 9.26937 5.23877 9.74077 6.42544 9.74077C7.6121 9.74077 8.75016 9.26937 9.58926 8.43027C10.4284 7.59117 10.8998 6.45311 10.8998 5.26644C10.8998 4.07978 10.4284 2.94171 9.58926 2.10261C8.75016 1.26352 7.6121 0.792114 6.42544 0.792114ZM3.74084 5.26644C3.74084 4.55444 4.02368 3.87161 4.52714 3.36815C5.0306 2.86469 5.71344 2.58185 6.42544 2.58185C7.13743 2.58185 7.82027 2.86469 8.32373 3.36815C8.82719 3.87161 9.11003 4.55444 9.11003 5.26644C9.11003 5.97844 8.82719 6.66128 8.32373 7.16474C7.82027 7.6682 7.13743 7.95104 6.42544 7.95104C5.71344 7.95104 5.0306 7.6682 4.52714 7.16474C4.02368 6.66128 3.74084 5.97844 3.74084 5.26644ZM13.502 5.46152C13.2504 5.33329 12.9719 5.26644 12.6895 5.26644V3.47671C13.2546 3.47675 13.8117 3.61059 14.3152 3.8673C14.8186 4.124 15.2542 4.49626 15.5861 4.95362C15.9181 5.41097 16.137 5.94043 16.225 6.49866C16.3131 7.05689 16.2676 7.62803 16.0925 8.16534C15.9174 8.70265 15.6176 9.19087 15.2175 9.59003C14.8175 9.98919 14.3286 10.288 13.7909 10.4619C13.2532 10.6358 12.682 10.68 12.1239 10.5907C11.5659 10.5015 11.0369 10.2813 10.5803 9.94838L11.6344 8.50228C11.834 8.64753 12.0615 8.74992 12.3025 8.80303C12.5436 8.85614 12.793 8.85881 13.0352 8.81087C13.2773 8.76294 13.5069 8.66544 13.7095 8.52449C13.9122 8.38355 14.0835 8.20221 14.2127 7.99188C14.3418 7.78155 14.4261 7.54677 14.4602 7.3023C14.4943 7.05782 14.4774 6.80895 14.4107 6.5713C14.3439 6.33366 14.2288 6.11239 14.0724 5.92141C13.916 5.73042 13.7218 5.57385 13.502 5.46152ZM16.2672 16.8997C16.2669 15.9509 15.8899 15.0411 15.219 14.3702C14.5481 13.6993 13.6383 13.3223 12.6895 13.322V11.5305C14.1134 11.5307 15.479 12.0965 16.4858 13.1034C17.4927 14.1102 18.0585 15.4758 18.0587 16.8997H16.2672ZM12.6895 16.8997H10.8998C10.8998 15.713 10.4284 14.575 9.58926 13.7359C8.75016 12.8968 7.6121 12.4254 6.42544 12.4254C5.23877 12.4254 4.10071 12.8968 3.26161 13.7359C2.42251 14.575 1.95111 15.713 1.95111 16.8997H0.161377C0.161377 15.2384 0.821338 13.6451 1.99608 12.4703C3.17082 11.2956 4.7641 10.6356 6.42544 10.6356C8.08677 10.6356 9.68005 11.2956 10.8548 12.4703C12.0295 13.6451 12.6895 15.2384 12.6895 16.8997Z" fill="white"/>
</svg>
