<svg width="20" height="20" viewBox="0 0 20 20" fill="none" xmlns="http://www.w3.org/2000/svg">
<path d="M11.7701 16.11C15.1447 16.11 16.8324 16.11 17.8803 15.0612C18.929 14.0133 18.929 12.3256 18.929 8.95104C18.929 5.5765 18.929 3.88878 17.8803 2.8409C16.8324 1.79211 15.1447 1.79211 11.7701 1.79211H8.19066C4.81612 1.79211 3.12841 1.79211 2.08052 2.8409C1.03174 3.88878 1.03174 5.5765 1.03174 8.95104C1.03174 12.3256 1.03174 14.0133 2.08052 15.0612C2.66487 15.6464 3.44788 15.905 4.6112 16.0187" stroke="#F5F5F5" stroke-width="1.78973" stroke-linecap="round" stroke-linejoin="round"/>
<path d="M9.98036 8.95105V8.96M6.4009 8.95105V8.96M13.5598 8.95105V8.96M11.7701 16.11C10.664 16.11 9.44523 16.5574 8.33292 17.1346C6.54497 18.0626 5.651 18.527 5.21073 18.2308C4.77046 17.9355 4.85368 17.0183 5.02102 15.1847L5.0586 14.7677" stroke="#F5F5F5" stroke-width="1.78973" stroke-linecap="round"/>
</svg>
