<svg width="13" height="12" viewBox="0 0 13 12" fill="none" xmlns="http://www.w3.org/2000/svg">
<path d="M5.08616 0.587891C4.29737 0.587891 3.54088 0.901236 2.98312 1.459C2.42536 2.01675 2.11202 2.77324 2.11202 3.56203C2.11202 4.35082 2.42536 5.1073 2.98312 5.66506C3.54088 6.22282 4.29737 6.53617 5.08616 6.53617C5.87495 6.53617 6.63143 6.22282 7.18919 5.66506C7.74695 5.1073 8.06029 4.35082 8.06029 3.56203C8.06029 2.77324 7.74695 2.01675 7.18919 1.459C6.63143 0.901236 5.87495 0.587891 5.08616 0.587891ZM3.30167 3.56203C3.30167 3.08875 3.48968 2.63486 3.82434 2.30021C4.15899 1.96555 4.61288 1.77755 5.08616 1.77755C5.55943 1.77755 6.01332 1.96555 6.34798 2.30021C6.68263 2.63486 6.87064 3.08875 6.87064 3.56203C6.87064 4.0353 6.68263 4.48919 6.34798 4.82385C6.01332 5.1585 5.55943 5.34651 5.08616 5.34651C4.61288 5.34651 4.15899 5.1585 3.82434 4.82385C3.48968 4.48919 3.30167 4.0353 3.30167 3.56203ZM9.79005 3.6917C9.62277 3.60646 9.43769 3.56203 9.24995 3.56203V2.37237C9.6256 2.3724 9.9959 2.46137 10.3306 2.632C10.6652 2.80263 10.9547 3.05008 11.1754 3.35409C11.396 3.6581 11.5416 4.01004 11.6001 4.3811C11.6586 4.75216 11.6284 5.13181 11.512 5.48896C11.3956 5.84612 11.1963 6.17064 10.9304 6.43597C10.6644 6.7013 10.3395 6.89989 9.98207 7.01551C9.62465 7.13112 9.24494 7.16046 8.87401 7.10113C8.50308 7.0418 8.15146 6.89549 7.84794 6.67417L8.54865 5.71293C8.68131 5.80947 8.83251 5.87754 8.99274 5.91284C9.15297 5.94814 9.31877 5.94992 9.47972 5.91805C9.64067 5.88619 9.79329 5.82138 9.92799 5.72769C10.0627 5.63401 10.1765 5.51347 10.2624 5.37366C10.3483 5.23385 10.4043 5.07779 10.427 4.91528C10.4496 4.75278 10.4384 4.58735 10.394 4.42938C10.3497 4.27142 10.2731 4.12434 10.1692 3.99739C10.0652 3.87044 9.93616 3.76636 9.79005 3.6917ZM11.6281 11.2948C11.6279 10.6641 11.3773 10.0593 10.9314 9.61338C10.4854 9.16743 9.88062 8.91682 9.24995 8.91667V7.72582C10.1964 7.72598 11.1041 8.10205 11.7734 8.77132C12.4427 9.4406 12.8188 10.3483 12.8189 11.2948H11.6281ZM9.24995 11.2948H8.06029C8.06029 10.506 7.74695 9.74951 7.18919 9.19175C6.63143 8.634 5.87495 8.32065 5.08616 8.32065C4.29737 8.32065 3.54088 8.634 2.98312 9.19175C2.42536 9.74951 2.11202 10.506 2.11202 11.2948H0.922363C0.922363 10.1905 1.36105 9.1314 2.14191 8.35054C2.92277 7.56968 3.98185 7.13099 5.08616 7.13099C6.19046 7.13099 7.24954 7.56968 8.0304 8.35054C8.81127 9.1314 9.24995 10.1905 9.24995 11.2948Z" fill="#09B451"/>
</svg>
