<svg width="8" height="8" viewBox="0 0 8 8" fill="none" xmlns="http://www.w3.org/2000/svg">
<path d="M3.88034 4.04672C4.36042 4.04672 4.82084 3.856 5.16032 3.51653C5.49979 3.17706 5.6905 2.71664 5.6905 2.23655C5.6905 1.75647 5.49979 1.29605 5.16032 0.956576C4.82084 0.617105 4.36042 0.426392 3.88034 0.426392C3.40025 0.426392 2.93983 0.617105 2.60036 0.956576C2.26089 1.29605 2.07017 1.75647 2.07017 2.23655C2.07017 2.71664 2.26089 3.17706 2.60036 3.51653C2.93983 3.856 3.40025 4.04672 3.88034 4.04672ZM5.08711 2.23655C5.08711 2.55661 4.95997 2.86356 4.73365 3.08987C4.50734 3.31619 4.20039 3.44333 3.88034 3.44333C3.56028 3.44333 3.25333 3.31619 3.02702 3.08987C2.8007 2.86356 2.67356 2.55661 2.67356 2.23655C2.67356 1.9165 2.8007 1.60955 3.02702 1.38324C3.25333 1.15692 3.56028 1.02978 3.88034 1.02978C4.20039 1.02978 4.50734 1.15692 4.73365 1.38324C4.95997 1.60955 5.08711 1.9165 5.08711 2.23655ZM7.50066 7.06366C7.50066 7.66704 6.89727 7.66704 6.89727 7.66704H0.863397C0.863397 7.66704 0.26001 7.66704 0.26001 7.06366C0.26001 6.46027 0.863397 4.65011 3.88034 4.65011C6.89727 4.65011 7.50066 6.46027 7.50066 7.06366ZM6.89727 7.06124C6.89667 6.91281 6.80435 6.4663 6.39526 6.05721C6.00185 5.6638 5.26149 5.25349 3.88034 5.25349C2.49858 5.25349 1.75882 5.6638 1.36542 6.05721C0.956319 6.4663 0.864604 6.91281 0.863397 7.06124H6.89727Z" fill="#09B451"/>
</svg>
